<svg width="393" height="218" viewBox="0 0 393 218" fill="none" xmlns="http://www.w3.org/2000/svg">
<path d="M185.301 76.795V73.897L185.307 73.905L225.402 124.032V124.031L225.403 124.028L229.231 114.193C236.413 106.691 260.404 80.316 261.55 61.58C258.814 62.315 256.207 62.859 253.718 63.258L245.862 51.292C244.101 39.739 240.132 29.536 233.454 19.353L231.067 15.714L227.99 18.793C227.591 19.193 227.209 19.591 226.823 19.99C226.755 19.986 226.705 19.989 226.663 19.995C221.585 12.082 210.903 6.614 198.508 6.614C198.498 6.614 198.489 6.615 198.479 6.615L196.859 0C196.859 0 196.847 0.000999451 196.846 0.000999451C196.596 0.0139995 162.857 1.87601 150.064 31.387C149.217 33.309 148.486 35.369 147.849 37.532C147.809 37.669 147.763 37.799 147.723 37.937C147.497 38.723 147.302 39.547 147.104 40.366C147.017 40.727 146.913 41.068 146.831 41.436C146.784 41.647 146.755 41.849 146.71 42.059C146.633 42.417 146.574 42.767 146.504 43.122C142.038 65.53 148.815 82.503 156.603 93.788C156.569 98.216 155.501 100.957 154.722 102.324C154.547 102.603 154.362 102.882 154.163 103.162H149.912L141.285 120.572H138.312L130.5 136.338C130.497 136.344 130.494 136.35 130.491 136.356C140.319 130.158 151.95 126.558 164.428 126.558C174.161 126.558 183.379 128.748 191.63 132.649C201.593 137.359 210.128 144.579 216.443 153.489C217.588 155.105 218.659 156.776 219.653 158.498H225.525H236.994L185.301 76.795ZM212.681 98.214L209.294 93.98L209.509 93.705L210.488 92.45L223.811 75.359C225.669 75.665 227.693 75.955 229.837 76.207L213.221 97.522L212.681 98.214ZM218.305 105.245L214.918 101.011L215.673 100.042L217.303 97.951L233.934 76.619C236.027 76.79 238.189 76.899 240.373 76.937L219.385 103.858L218.305 105.245ZM252.017 76.251L225.553 110.198L223.931 112.278L220.544 108.044L221.84 106.381L224.002 103.608L244.825 76.897C247.251 76.81 249.667 76.608 252.017 76.251ZM220.464 51.026L220.757 47.064L222.54 48.493C223.754 49.5 226.301 51.58 229.957 53.594H229.958C232.469 54.977 235.5 56.319 239.035 57.264L240.371 59.298L242.512 62.559L243.543 64.129C243.334 64.13 243.129 64.127 242.923 64.127C228.073 64.075 219.902 58.659 219.902 58.659L220.464 51.026ZM214.213 73.424C215.36 73.705 217.277 74.147 219.751 74.63L219.881 74.731L207.481 90.636L207.056 91.181L203.669 86.947L214.213 73.424Z" fill="white"/>
<path d="M8.687 183.487H0V217.101H8.687V183.487Z" fill="white"/>
<path d="M42.802 209.249H42.606L32.153 183.487H19.689V217.101H27.247V192.711H27.442L37.502 217.101H46.924L56.935 192.711H57.131V217.101H65.818V183.487H53.401L42.802 209.249Z" fill="white"/>
<path d="M108.394 186.429C105.155 183.78 100.297 183.486 93.7701 183.486H76.8401V217.1H85.5271V209.613V207.628V201.201V194.008V189.913H93.5241C99.4141 189.913 103.094 190.355 103.094 195.459C103.094 199.974 100.445 201.201 93.6221 201.201H90.5741V207.628H91.8081C100.051 207.628 104.371 207.286 108.001 204.587C110.7 202.673 111.927 199.58 111.927 195.361C111.927 191.386 110.798 188.393 108.394 186.429Z" fill="white"/>
<path d="M129.372 203.164H147.529V196.687H129.372V190.159H149.001V183.487H120.685V217.101H149.834V210.378H129.372V203.164Z" fill="white"/>
<path d="M189.8 202.722C192.449 200.906 193.676 198.307 193.676 194.331C193.676 190.601 192.547 188 190.094 186.186C186.855 183.781 182.097 183.487 175.52 183.487H159.179V217.101H167.866V209.614V205.569V199.436V194.009V189.914H175.57C181.312 189.914 184.844 190.21 184.844 194.577C184.844 198.601 182.195 199.436 175.668 199.436H172.913V205.569C172.913 205.569 175.03 205.569 175.816 205.519L184.796 217.101H195.297L185.286 204.538C187.053 204.195 188.573 203.605 189.8 202.722Z" fill="white"/>
<path d="M220.103 209.151H219.858L207.835 183.487H198.069L214.901 217.101H224.619L241.401 183.487H232.077L220.103 209.151Z" fill="white"/>
<path d="M256.245 183.487H247.558V217.101H256.245V183.487Z" fill="white"/>
<path d="M302.482 186.186C298.408 183.535 293.208 182.799 286.483 182.799C279.86 182.799 274.607 183.486 270.536 186.186C265.923 189.227 264.353 194.332 264.353 200.269C264.353 206.257 265.923 211.261 270.536 214.304C274.075 216.692 278.482 217.552 283.985 217.738V210.908C276.578 210.325 273.235 206.984 273.235 200.023C273.235 192.123 277.405 189.57 286.533 189.57C295.709 189.57 299.783 192.811 299.783 200.515C299.783 207.627 296.341 210.432 289.032 210.922V217.739C294.489 217.555 298.937 216.701 302.481 214.352C307.044 211.261 308.665 206.257 308.665 200.269C308.665 194.331 307.045 189.276 302.482 186.186Z" fill="white"/>
<path d="M344.711 202.035C344.711 204.832 344.319 206.992 342.847 208.514C341.179 210.378 338.282 211.015 334.798 211.015C331.364 211.015 328.419 210.28 326.751 208.464C325.23 206.796 324.789 204.538 324.789 201.691V183.487H316.102V202.331C316.102 207.827 316.789 211.655 320.126 214.254C323.954 217.249 329.009 217.788 334.7 217.788C340.344 217.788 345.301 217.249 349.177 214.254C352.563 211.655 353.251 207.827 353.251 202.331V183.487H344.712V202.035H344.711Z" fill="white"/>
<path d="M379.038 196.295C376.633 195.901 373.933 195.558 372.069 195.066C370.449 194.674 369.859 193.889 369.859 192.467C369.859 191.14 370.35 190.307 371.971 189.914C373.491 189.62 375.503 189.522 377.269 189.522C381.147 189.522 386.004 189.866 389.931 190.307V183.338C385.562 183.044 381.49 182.799 377.416 182.799C373.884 182.799 369.858 183.045 366.915 184.467C363.037 186.331 361.615 189.522 361.615 193.447C361.615 199.776 365.393 202.132 374.03 203.556C376.581 203.998 379.428 204.389 381.342 204.881C383.01 205.372 383.599 206.158 383.599 207.678C383.599 209.1 383.205 210.033 381.439 210.427C379.966 210.721 377.415 210.916 374.47 210.916C370.888 210.916 365.735 210.524 361.712 210.083V217.247C366.619 217.541 371.036 217.786 375.599 217.786C379.379 217.786 383.696 217.392 386.689 215.92C390.567 214.008 392.039 210.767 392.039 206.696C392.043 199.877 387.675 197.62 379.038 196.295Z" fill="white"/>
</svg>