<svg width="79" height="20" viewBox="0 0 90 20" fill="none" xmlns="http://www.w3.org/2000/svg">
  <!-- Strike Icon -->
  <path fill-rule="evenodd" clip-rule="evenodd" d="M3.31317 8.49362C2.82011 8.30435 2.57384 7.75121 2.76311 7.25815C2.95238 6.76509 3.50552 6.51881 3.99858 6.70808L7.55779 8.07434C7.56174 8.07591 7.5657 8.07746 7.56967 8.07899L9.35521 8.76439C9.84827 8.95366 10.4014 8.70738 10.5907 8.21432C10.7799 7.72126 10.5337 7.16812 10.0406 6.97885L10.0404 6.97877C10.0405 6.97874 10.0405 6.9787 10.0406 6.97866L8.25506 6.29326C7.762 6.104 7.51572 5.55086 7.70499 5.0578C7.89426 4.56473 8.4474 4.31846 8.94046 4.50773L14.1921 6.52363C14.2046 6.52845 14.217 6.53352 14.2293 6.53881C14.2519 6.54711 14.2745 6.55559 14.2971 6.56425C16.7624 7.5106 17.9938 10.2763 17.0474 12.7416C16.1011 15.2069 13.3354 16.4383 10.8701 15.4919C10.8226 15.4737 10.7756 15.4548 10.729 15.4353C10.7065 15.4285 10.684 15.4208 10.6616 15.4122L5.51344 13.436C5.02038 13.2467 4.77411 12.6936 4.96338 12.2005C5.15265 11.7075 5.70579 11.4612 6.19885 11.6504L7.98415 12.3358C7.98411 12.3356 7.98407 12.3355 7.98403 12.3354L7.9844 12.3355C8.47746 12.5248 9.0306 12.2785 9.21987 11.7854C9.40914 11.2924 9.16287 10.7392 8.66981 10.55L7.86633 10.2416C7.86634 10.2415 7.86634 10.2415 7.86635 10.2414L3.31317 8.49362Z" fill="white"/>
  
  <!-- Strike Text -->
  <g transform="translate(28, 3.5)">
    <!-- S -->
    <path d="M5.53551 12.0094C4.61482 12.0289 3.7007 11.8537 2.85607 11.496C2.12816 11.1794 1.50979 10.6642 1.0754 10.0128C0.642748 9.33714 0.39054 8.56665 0.341797 7.77161V7.65141H2.808V7.75532C2.82559 8.19609 2.9777 8.62173 3.24484 8.97777C3.50828 9.31505 3.85779 9.57915 4.25853 9.74381C4.69434 9.92241 5.1631 10.0119 5.63583 10.0066C6.02766 10.0134 6.41822 9.96115 6.79372 9.85179C7.0883 9.76915 7.35238 9.60581 7.55452 9.38117C7.73891 9.15386 7.83442 8.87007 7.82409 8.58046C7.83246 8.40646 7.79905 8.23297 7.72648 8.07379C7.65391 7.91462 7.54418 7.77416 7.40609 7.66363C6.99964 7.38173 6.52925 7.19998 6.03506 7.13391L4.07876 6.76512C3.18984 6.62487 2.36041 6.2404 1.68777 5.65679C1.38402 5.37934 1.14449 5.04189 0.985188 4.66701C0.825883 4.29213 0.750487 3.88843 0.763989 3.48287C0.75674 2.83194 0.96648 2.19632 1.36171 1.67161C1.78712 1.12081 2.35771 0.692727 3.01282 0.432882C4.56833 -0.167745 6.30236 -0.15605 7.8492 0.465487C8.50592 0.751173 9.0661 1.21249 9.46479 1.79592C9.84918 2.39288 10.0654 3.07803 10.0918 3.78239V3.90055H7.62764V3.7946C7.60996 3.47278 7.51168 3.16009 7.34133 2.88388C7.15141 2.59851 6.87957 2.37389 6.55966 2.23802C6.13898 2.06192 5.68381 1.97778 5.22619 1.9915C4.85647 1.98677 4.48852 2.04184 4.13729 2.15448C3.85408 2.24116 3.59903 2.39851 3.39741 2.61088C3.22433 2.80318 3.13182 3.05191 3.13824 3.30766C3.12548 3.46769 3.15763 3.6281 3.23126 3.77167C3.3049 3.91524 3.41726 4.03655 3.55625 4.12262C3.9988 4.36024 4.48046 4.5209 4.97958 4.59735L6.91914 4.96407C7.51097 5.06887 8.08087 5.26853 8.60577 5.55492C9.08683 5.82022 9.49099 6.20017 9.78039 6.6592C10.0808 7.15145 10.2323 7.71652 10.2172 8.28912C10.2286 8.97267 10.037 9.64484 9.66543 10.2247C9.2711 10.8075 8.71219 11.2668 8.05611 11.5469C7.2601 11.8769 6.40013 12.0347 5.53551 12.0094Z" fill="white"/>
    <!-- T -->
    <path d="M14.7421 11.7221V2.28284H10.8965V0.282107H20.9558V2.28284H17.1248V11.7221H14.7421Z" fill="white"/>
    <!-- R -->
    <path d="M28.9273 11.7221V8.86977C28.9273 8.24225 28.7977 7.79606 28.5427 7.54749C28.2877 7.29893 27.8174 7.17058 27.1507 7.17058H24.8517V11.7221H22.469V0.282107H27.6795C28.8164 0.282107 29.7486 0.544927 30.4446 1.0665C31.1406 1.58808 31.5084 2.35823 31.5084 3.34229C31.5294 4.01366 31.2906 4.66816 30.8396 5.17595C30.4931 5.55368 30.0648 5.85154 29.5856 6.04797C30.065 6.18006 30.486 6.46301 30.7832 6.85273C31.1649 7.38962 31.3551 8.03387 31.3245 8.6864V11.7303L28.9273 11.7221ZM27.2677 5.15355C27.6115 5.16251 27.9538 5.10574 28.2751 4.98646C28.5168 4.89368 28.7223 4.72901 28.8625 4.51584C29.0029 4.27557 29.0709 4.00159 29.0589 3.72532C29.0748 3.52488 29.0431 3.32355 28.9663 3.13698C28.8894 2.95042 28.7695 2.78363 28.6158 2.64957C28.3148 2.40712 27.8613 2.28283 27.2677 2.28283H24.8496V5.15355H27.2677Z" fill="white"/>
    <!-- I -->
    <path d="M36.2633 0.282107H33.8806V11.7221H36.2633V0.282107Z" fill="white"/>
    <!-- K -->
    <path d="M46.0405 11.7058L42.1697 6.72642L41.1644 7.74512V11.7058H38.8152V0.263777H41.1644V4.77663L41.2585 4.66252L41.4675 4.4221C41.5455 4.33517 41.6291 4.24758 41.7183 4.15929L45.4804 0.263777H48.5485L43.7748 5.09853L49.1755 11.7058H46.0405Z" fill="white"/>
    <!-- E -->
    <path d="M50.0638 11.7038V0.263771H58.2985V2.26654H52.4464V4.78273H58.0519V6.79976H52.4464V9.70306H58.5452V11.7038H50.0638Z" fill="white"/>
  </g>
</svg>